#!OML:ASF G:\JayActor3\Patient Classification 1\Patient 1\Session 5\male.ASF
:FULLY-SPECIFIED
:DEGREES
783
root 2.42733 16.8067 -4.89059 -350.73 86.7175 -349.016
lowerback 2.45131 -0.733956 -1.43776
upperback 2.00861 -0.972586 -0.967892
thorax 0.691219 -0.484224 -0.167932
lowerneck -7.82228 0.54123 2.62767
upperneck 13.328 0.375797 0.777544
head 5.30517 0.409375 -0.159174
rclavicle 1.2424e-016 -4.77083e-015
rhumerus -32.8515 -3.97127 -87.5999
rradius 30.3963
rwrist 1.03688
rhand -18.1445 -7.96585
rfingers 7.12502
rthumb 8.13089 -37.7894
lclavicle 1.2424e-016 -4.77083e-015
lhumerus -30.3601 1.99274 84.9458
lradius 27.9096
lwrist 18.2481
lhand -17.5215 13.8525
lfingers 7.12502
lthumb 8.7321 43.6519
rfemur -33.2028 5.2089 19.0453
rtibia 46.7034
rfoot -14.7885 -10.9899
rtoes -8.86464
lfemur 16.4304 8.5004 -24.6031
ltibia 3.18055e-014
lfoot -10.5595 -2.14934
ltoes 0.558939
784
root 2.34926 16.7984 -4.89681 -351.894 86.6391 -350.139
lowerback 2.42604 -0.728472 -1.39002
upperback 2.01539 -0.964041 -0.958074
thorax 0.711565 -0.479692 -0.185168
lowerneck -7.83645 0.549818 2.63647
upperneck 13.4165 0.388828 0.759222
head 5.33525 0.416671 -0.165207
rclavicle -2.48481e-015 -6.75868e-015
rhumerus -32.8705 -4.07286 -87.5867
rradius 30.2453
rwrist 1.09046
rhand -18.1376 -7.93952
rfingers 7.12502
rthumb 8.13756 -37.7628
lclavicle -2.48481e-015 -6.75868e-015
lhumerus -30.3872 2.28898 84.8072
lradius 27.4659
lwrist 18.0382
lhand -17.505 13.7854
lfingers 7.12502
lthumb 8.74801 43.5841
rfemur -33.2027 5.15898 19.0822
rtibia 48.0941
rfoot -15.2859 -11.4299
rtoes -8.63362
lfemur 16.1933 8.59505 -24.5876
ltibia 4.6118e-014
lfoot -10.5485 -2.1486
ltoes 0.861397
785
root 2.27205 16.7902 -4.90263 -352.949 86.5642 -351.149
lowerback 2.4093 -0.722623 -1.3386
upperback 2.01438 -0.95534 -0.952238
thorax 0.719037 -0.474956 -0.208346
lowerneck -7.84266 0.555826 2.64638
upperneck 13.5066 0.398636 0.741182
head 5.36451 0.422543 -0.171569
rclavicle -1.87106e-014 -1.70955e-014
rhumerus -32.9101 -4.17579 -87.575
rradius 30.1083
rwrist 1.13093
rhand -18.1285 -7.91273
rfingers 7.12502
rthumb 8.14633 -37.7357
lclavicle -1.87106e-014 -1.70955e-014
lhumerus -30.4299 2.58557 84.6645
lradius 27.0262
lwrist 17.8277
lhand -17.4927 13.7626
lfingers 7.12502
lthumb 8.75991 43.5608
rfemur -33.163 5.11281 19.117
rtibia 49.4996
rfoot -15.7162 -11.8473
rtoes -8.47179
lfemur 15.9618 8.68405 -24.5728
ltibia 1.43125e-014
lfoot -10.5313 -2.14851
ltoes 1.16513
786
root 2.19568 16.7826 -4.90801 -353.92 86.5006 -352.076
lowerback 2.39318 -0.719782 -1.28585
upperback 2.00893 -0.950789 -0.947046
thorax 0.721616 -0.47227 -0.232807
lowerneck -7.84399 0.559883 2.65355
upperneck 13.5934 0.4063 0.723951
head 5.39184 0.427232 -0.177396
rclavicle -9.26834e-015 -8.34896e-015
rhumerus -32.9611 -4.28181 -87.5593
rradius 29.9838
rwrist 1.18152
rhand -18.1167 -7.88309
rfingers 7.12502
rthumb 8.1577 -37.7056
lclavicle -9.26834e-015 -8.34896e-015
lhumerus -30.4813 2.88005 84.5229
lradius 26.594
lwrist 17.6182
lhand -17.4787 13.764
lfingers 7.12502
lthumb 8.77345 43.5617
rfemur -33.0844 5.06708 19.1499
rtibia 50.9104
rfoot -16.0664 -12.2403
rtoes -8.42261
lfemur 15.7316 8.75984 -24.5572
ltibia 2.22639e-014
lfoot -10.505 -2.15136
ltoes 1.45801
787
root 2.12025 16.7751 -4.91319 -354.846 86.4364 -352.949
lowerback 2.38494 -0.715979 -1.22863
upperback 2.00198 -0.945056 -0.943678
thorax 0.718148 -0.468901 -0.261532
lowerneck -7.83349 0.561517 2.65818
upperneck 13.6715 0.411377 0.707942
head 5.41445 0.430482 -0.182656
rclavicle -1.91951e-014 -5.56597e-015
rhumerus -33.0255 -4.38932 -87.5387
rradius 29.873
rwrist 1.25212
rhand -18.1059 -7.85543
rfingers 7.12502
rthumb 8.16816 -37.6776
lclavicle -1.91951e-014 -5.56597e-015
lhumerus -30.5433 3.16742 84.3841
lradius 26.1722
lwrist 17.4119
lhand -17.4718 13.7829
lfingers 7.12502
lthumb 8.78007 43.5803
rfemur -32.9533 5.02798 19.1798
rtibia 52.3178
rfoot -16.3529 -12.5583
rtoes -8.35454
lfemur 15.5152 8.83524 -24.5393
ltibia -3.18055e-015
lfoot -10.4692 -2.1544
ltoes 1.73924
